# xmcd CD database file
#
# Track frame offsets:
#	150
#	9907
#	18172
#	29372
#	39801
#	50732
#	59249
#	68763
#	83477
#	93451
#	101816
#	114466
#	127535
#	141262
#	151205
#	161205
#	173298
#	183657
#	194505
#	207986
#	219859
#	230527
#	241976
#	252386
#	264440
#
# Disc length: 3773 seconds
#
# Revision: 2
# Processed by: cddbd v1.5.2PL0 Copyright (c) Steve Scherf et al.
# Submitted via: CDex 1.70beta2
#
DISCID=4e0ebb19
DTITLE=Ivan Mládek - Banjo Band Story 2 CD1
DYEAR=2007
DGENRE=Country
TTITLE0=Defile u more
TTITLE1=Pragovka Baby
TTITLE2=Petrinska rozhledna
TTITLE3=Divka s modrou matraci
TTITLE4=Pisen o jaru
TTITLE5=O nebezpecenstvu hor
TTITLE6=Svatebni holinky
TTITLE7=Tak se nam ti nasi mladi berou
TTITLE8=Kane Mysilov
TTITLE9=Mravenci v kredenci
TTITLE10=Pisen fotbaloveho soudce
TTITLE11=Restaurace U privozu
TTITLE12=My mame chaloupku v Blatne
TTITLE13=Praha-Prcice
TTITLE14=Mival jsem klobouk
TTITLE15=Zpivajici reznik
TTITLE16=Malir olejovych obrazku
TTITLE17=Na Brdech
TTITLE18=Lulu z Honolulu
TTITLE19=Heleme se, nemele se!
TTITLE20=Pantata a kantata
TTITLE21=Ztratil jsem sako
TTITLE22=Zobali vrabci zobali
TTITLE23=Rychlik jede do Prahy
TTITLE24=Vanoce v Dablicich
EXTD=YEAR: 2007
EXTT0=
EXTT1=
EXTT2=
EXTT3=
EXTT4=
EXTT5=
EXTT6=
EXTT7=
EXTT8=
EXTT9=
EXTT10=
EXTT11=
EXTT12=
EXTT13=
EXTT14=
EXTT15=
EXTT16=
EXTT17=
EXTT18=
EXTT19=
EXTT20=
EXTT21=
EXTT22=
EXTT23=
EXTT24=
PLAYORDER=
